<svg xmlns="http://www.w3.org/2000/svg" viewBox="0 0 1200 525" role="img"><rect width="1200" height="525" fill="#f6f6f6"/><rect x="150" y="60" width="900" height="465" rx="18" fill="#ffffff" stroke="#dcdcdc" stroke-width="2"/><rect x="190" y="105" width="56" height="56" rx="8" fill="#d6d6d6" opacity="1"/><rect x="274" y="105" width="56" height="56" rx="8" fill="#e6e6e6" opacity="1"/><rect x="358" y="105" width="56" height="56" rx="8" fill="#c9c9c9" opacity="1"/><rect x="442" y="105" width="56" height="56" rx="8" fill="#e6e6e6" opacity="1"/><rect x="526" y="105" width="56" height="56" rx="8" fill="#e6e6e6" opacity="1"/><rect x="610" y="105" width="56" height="56" rx="8" fill="#141414" opacity="0.92"/><rect x="694" y="105" width="56" height="56" rx="8" fill="#e6e6e6" opacity="1"/><rect x="778" y="105" width="56" height="56" rx="8" fill="#d6d6d6" opacity="1"/><rect x="862" y="105" width="56" height="56" rx="8" fill="#141414" opacity="0.92"/><rect x="946" y="105" width="56" height="56" rx="8" fill="#e6e6e6" opacity="1"/><rect x="190" y="189" width="56" height="56" rx="8" fill="#141414" opacity="0.92"/><rect x="274" y="189" width="56" height="56" rx="8" fill="#e6e6e6" opacity="1"/><rect x="358" y="189" width="56" height="56" rx="8" fill="#e6e6e6" opacity="1"/><rect x="442" y="189" width="56" height="56" rx="8" fill="#e6e6e6" opacity="1"/><rect x="526" y="189" width="56" height="56" rx="8" fill="#c9c9c9" opacity="1"/><rect x="610" y="189" width="56" height="56" rx="8" fill="#c9c9c9" opacity="1"/><rect x="694" y="189" width="56" height="56" rx="8" fill="#e6e6e6" opacity="1"/><rect x="778" y="189" width="56" height="56" rx="8" fill="#e6e6e6" opacity="1"/><rect x="862" y="189" width="56" height="56" rx="8" fill="#e6e6e6" opacity="1"/><rect x="946" y="189" width="56" height="56" rx="8" fill="#141414" opacity="0.92"/><rect x="190" y="273" width="56" height="56" rx="8" fill="#c9c9c9" opacity="1"/><rect x="274" y="273" width="56" height="56" rx="8" fill="#e6e6e6" opacity="1"/><rect x="358" y="273" width="56" height="56" rx="8" fill="#141414" opacity="0.92"/><rect x="442" y="273" width="56" height="56" rx="8" fill="#e6e6e6" opacity="1"/><rect x="526" y="273" width="56" height="56" rx="8" fill="#e6e6e6" opacity="1"/><rect x="610" y="273" width="56" height="56" rx="8" fill="#141414" opacity="0.92"/><rect x="694" y="273" width="56" height="56" rx="8" fill="#ffc93a"/><circle cx="722" cy="301" r="46" fill="#ffc93a" opacity="0.25"/><rect x="778" y="273" width="56" height="56" rx="8" fill="#e6e6e6" opacity="1"/><rect x="862" y="273" width="56" height="56" rx="8" fill="#141414" opacity="0.92"/><rect x="946" y="273" width="56" height="56" rx="8" fill="#141414" opacity="0.92"/><rect x="190" y="357" width="56" height="56" rx="8" fill="#c9c9c9" opacity="1"/><rect x="274" y="357" width="56" height="56" rx="8" fill="#e6e6e6" opacity="1"/><rect x="358" y="357" width="56" height="56" rx="8" fill="#e6e6e6" opacity="1"/><rect x="442" y="357" width="56" height="56" rx="8" fill="#e6e6e6" opacity="1"/><rect x="526" y="357" width="56" height="56" rx="8" fill="#141414" opacity="0.92"/><rect x="610" y="357" width="56" height="56" rx="8" fill="#e6e6e6" opacity="1"/><rect x="694" y="357" width="56" height="56" rx="8" fill="#d6d6d6" opacity="1"/><rect x="778" y="357" width="56" height="56" rx="8" fill="#c9c9c9" opacity="1"/><rect x="862" y="357" width="56" height="56" rx="8" fill="#e6e6e6" opacity="1"/><rect x="946" y="357" width="56" height="56" rx="8" fill="#141414" opacity="0.92"/><rect x="190" y="441" width="56" height="56" rx="8" fill="#e6e6e6" opacity="1"/><rect x="274" y="441" width="56" height="56" rx="8" fill="#141414" opacity="0.92"/><rect x="358" y="441" width="56" height="56" rx="8" fill="#d6d6d6" opacity="1"/><rect x="442" y="441" width="56" height="56" rx="8" fill="#141414" opacity="0.92"/><rect x="526" y="441" width="56" height="56" rx="8" fill="#e6e6e6" opacity="1"/><rect x="610" y="441" width="56" height="56" rx="8" fill="#e6e6e6" opacity="1"/><rect x="694" y="441" width="56" height="56" rx="8" fill="#141414" opacity="0.92"/><rect x="778" y="441" width="56" height="56" rx="8" fill="#141414" opacity="0.92"/><rect x="862" y="441" width="56" height="56" rx="8" fill="#e6e6e6" opacity="1"/><rect x="946" y="441" width="56" height="56" rx="8" fill="#d6d6d6" opacity="1"/></svg>