<svg xmlns="http://www.w3.org/2000/svg" viewBox="0 0 1200 525" role="img"><rect width="1200" height="525" fill="#f6f6f6"/><rect x="120" y="140" width="250" height="250" rx="20" fill="none" stroke="#bdbdbd" stroke-width="6"/><rect x="175" y="195" width="60" height="60" rx="10" fill="#d6d6d6"/><rect x="255" y="195" width="60" height="60" rx="10" fill="#d6d6d6"/><rect x="175" y="275" width="60" height="60" rx="10" fill="#d6d6d6"/><rect x="255" y="275" width="60" height="60" rx="10" fill="#d6d6d6"/><line x1="830" y1="262" x2="620" y2="120" stroke="#c9c9c9" stroke-width="5"/><line x1="830" y1="262" x2="1050" y2="130" stroke="#c9c9c9" stroke-width="5"/><line x1="830" y1="262" x2="600" y2="400" stroke="#c9c9c9" stroke-width="5"/><line x1="830" y1="262" x2="1080" y2="380" stroke="#c9c9c9" stroke-width="5"/><line x1="830" y1="262" x2="830" y2="80" stroke="#c9c9c9" stroke-width="5"/><line x1="830" y1="262" x2="860" y2="460" stroke="#c9c9c9" stroke-width="5"/><circle cx="620" cy="120" r="34" fill="#ffffff" stroke="#141414" stroke-width="5"/><rect x="1018" y="98" width="64" height="64" rx="12" fill="#ffffff" stroke="#141414" stroke-width="5"/><rect x="568" y="368" width="64" height="64" rx="12" fill="#ffffff" stroke="#141414" stroke-width="5"/><circle cx="1080" cy="380" r="34" fill="#ffffff" stroke="#141414" stroke-width="5"/><circle cx="830" cy="80" r="34" fill="#ffffff" stroke="#141414" stroke-width="5"/><rect x="828" y="428" width="64" height="64" rx="12" fill="#ffffff" stroke="#141414" stroke-width="5"/><circle cx="830" cy="262" r="54" fill="#ffc93a"/><circle cx="830" cy="262" r="20" fill="#141414"/></svg>