<svg xmlns="http://www.w3.org/2000/svg" viewBox="0 0 1200 525" role="img"><rect width="1200" height="525" fill="#f6f6f6"/><rect x="330" y="80" width="540" height="120" rx="26" fill="#ffffff" stroke="#dcdcdc" stroke-width="3"/><line x1="380" y1="170" x2="820" y2="170" stroke="#e0e0e0" stroke-width="8"/><path d="M 440 230 C 400 300, 480 360, 440 440" fill="none" stroke="#b9c8cf" stroke-width="10" stroke-linecap="round" stroke-dasharray="2 26"/><path d="M 600 230 C 560 300, 640 360, 600 440" fill="none" stroke="#b9c8cf" stroke-width="10" stroke-linecap="round" stroke-dasharray="2 26"/><path d="M 760 230 C 720 300, 800 360, 760 440" fill="none" stroke="#b9c8cf" stroke-width="10" stroke-linecap="round" stroke-dasharray="2 26"/><rect x="930" y="300" width="90" height="150" rx="20" fill="#141414"/><circle cx="975" cy="345" r="14" fill="#ffc93a"/><path d="M 929 300 A 46 46 0 0 1 1021 300" fill="none" stroke="#ffc93a" stroke-width="8" opacity="0.55" /><path d="M 903 300 A 72 72 0 0 1 1047 300" fill="none" stroke="#ffc93a" stroke-width="8" opacity="0.32" /><path d="M 877 300 A 98 98 0 0 1 1073 300" fill="none" stroke="#ffc93a" stroke-width="8" opacity="0.16" /></svg>