<svg xmlns="http://www.w3.org/2000/svg" viewBox="0 0 1200 525" role="img"><rect width="1200" height="525" fill="#f6f6f6"/><circle cx="160" cy="262" r="74.0" fill="#ffc93a" opacity="0.04"/><circle cx="160" cy="262" r="40.0" fill="#ffc93a" opacity="0.12"/><circle cx="160" cy="262" r="30" fill="#bdbdbd"/><rect x="149" y="316" width="22" height="26" rx="5" fill="#141414"/><circle cx="380" cy="262" r="92.75" fill="#ffc93a" opacity="0.09"/><circle cx="380" cy="262" r="58.75" fill="#ffc93a" opacity="0.24"/><circle cx="380" cy="262" r="30" fill="#ffc93a"/><rect x="369" y="316" width="22" height="26" rx="5" fill="#141414"/><circle cx="600" cy="262" r="111.5" fill="#ffc93a" opacity="0.13"/><circle cx="600" cy="262" r="77.5" fill="#ffc93a" opacity="0.37"/><circle cx="600" cy="262" r="30" fill="#ffc93a"/><rect x="589" y="316" width="22" height="26" rx="5" fill="#141414"/><circle cx="820" cy="262" r="130.25" fill="#ffc93a" opacity="0.17"/><circle cx="820" cy="262" r="96.25" fill="#ffc93a" opacity="0.49"/><circle cx="820" cy="262" r="30" fill="#ffc93a"/><rect x="809" y="316" width="22" height="26" rx="5" fill="#141414"/><circle cx="1040" cy="262" r="149.0" fill="#ffc93a" opacity="0.22"/><circle cx="1040" cy="262" r="115.0" fill="#ffc93a" opacity="0.62"/><circle cx="1040" cy="262" r="30" fill="#ffc93a"/><rect x="1029" y="316" width="22" height="26" rx="5" fill="#141414"/></svg>